<svg width="25" height="49" viewBox="0 0 25 49" fill="none" xmlns="http://www.w3.org/2000/svg">
<path d="M1.21924 25.9348H6.52211V47.7893C6.52211 48.2208 6.87136 48.5704 7.30238 48.5704H16.2936C16.7246 48.5704 17.0739 48.2208 17.0739 47.7893V26.0377H23.17C23.5663 26.0377 23.8998 25.74 23.9451 25.3458L24.871 17.3001C24.8964 17.0787 24.8263 16.857 24.6784 16.691C24.5303 16.5248 24.3184 16.4296 24.096 16.4296H17.0742V11.3861C17.0742 9.8658 17.8919 9.09484 19.5049 9.09484C19.7348 9.09484 24.096 9.09484 24.096 9.09484C24.527 9.09484 24.8763 8.74506 24.8763 8.31373V0.928492C24.8763 0.497007 24.527 0.147382 24.096 0.147382H17.7688C17.7241 0.145195 17.6251 0.141602 17.479 0.141602C16.3811 0.141602 12.5652 0.357344 9.55081 3.13341C6.21094 6.20973 6.6752 9.89313 6.78616 10.5318V16.4295H1.21924C0.788214 16.4295 0.438965 16.7791 0.438965 17.2106V25.1535C0.438965 25.585 0.788214 25.9348 1.21924 25.9348Z" fill="#474747"/>
</svg>
