<svg width="45" height="45" viewBox="0 0 45 45" fill="none" xmlns="http://www.w3.org/2000/svg">
<path d="M43.0278 22.7588C43.0278 20.004 42.4935 17.369 41.4254 14.8546C40.3574 12.3402 38.9137 10.1729 37.095 8.35165C35.2761 6.53045 33.1107 5.08572 30.599 4.01653C28.0873 2.94734 25.4552 2.41246 22.7028 2.41246C21.2975 2.41246 19.8539 2.56732 18.3723 2.87549C16.3701 1.33459 14.1182 0.563477 11.6165 0.563477C8.55631 0.563477 5.94349 1.64738 3.77801 3.8147C1.61253 5.98201 0.529785 8.59714 0.529785 11.6612C0.529785 14.1665 1.29908 16.4208 2.83931 18.4237C2.53099 19.9084 2.37728 21.3536 2.37728 22.7589C2.37728 25.5146 2.91158 28.1495 3.97971 30.6639C5.04775 33.1784 6.49143 35.3457 8.31017 37.1669C10.1289 38.988 12.2944 40.4327 14.8061 41.502C17.3178 42.5713 19.9499 43.1061 22.7022 43.1061C24.107 43.1061 25.5506 42.9512 27.0327 42.6431C29.0345 44.1839 31.2864 44.9551 33.7886 44.9551C36.8488 44.9551 39.4616 43.8712 41.627 41.7038C43.7926 39.536 44.8752 36.9204 44.8752 33.8575C44.8752 31.3521 44.1054 29.0987 42.5657 27.0939C42.8736 25.6117 43.0278 24.1666 43.0278 22.7588ZM33.4427 31.3865C32.8074 32.5134 31.9556 33.4152 30.8875 34.0892C29.8194 34.7633 28.6402 35.2795 27.3506 35.6347C26.0607 35.9914 24.7135 36.17 23.3087 36.17C20.056 36.17 17.2552 35.539 14.9071 34.2765C12.5587 33.0145 11.3849 31.4969 11.3849 29.7242C11.3849 28.8575 11.6301 28.1348 12.1215 27.5564C12.6122 26.9786 13.3382 26.6897 14.3011 26.6897C14.8592 26.6897 15.3788 26.8445 15.86 27.1527C16.3407 27.4609 16.784 27.8313 17.1879 28.265C17.5923 28.6985 18.0295 29.1322 18.5017 29.5655C18.9733 29.9991 19.5986 30.3705 20.3786 30.6788C21.158 30.9869 22.0386 31.1407 23.0202 31.1407C24.2708 31.1407 25.2818 30.8958 26.0516 30.4045C26.8208 29.9121 27.2066 29.2912 27.2066 28.5392C27.2066 27.7691 26.8983 27.1911 26.2825 26.8051C25.8589 26.5364 24.7812 26.1897 23.049 25.7652L18.8338 24.7243C17.6788 24.4556 16.6875 24.1418 15.86 23.7851C15.0321 23.4293 14.2622 22.9623 13.5505 22.384C12.8383 21.8061 12.2994 21.0789 11.934 20.2014C11.568 19.3255 11.3855 18.2993 11.3855 17.1228C11.3855 15.7171 11.7075 14.4788 12.3526 13.4096C12.997 12.3403 13.8538 11.5013 14.9219 10.8952C15.99 10.2879 17.1399 9.83501 18.3718 9.53602C19.6032 9.23803 20.8735 9.0887 22.1827 9.0887C24.0303 9.0887 25.7817 9.3098 27.4372 9.75257C29.0921 10.1963 30.459 10.8466 31.5366 11.7033C32.6144 12.5615 33.1532 13.52 33.1532 14.5801C33.1532 15.4469 32.8788 16.1888 32.3303 16.8051C31.7818 17.4214 31.0549 17.7296 30.1505 17.7296C29.6501 17.7296 29.1881 17.6143 28.7651 17.383C28.3415 17.1517 27.9568 16.8729 27.6101 16.544C27.2638 16.2176 26.8979 15.8938 26.5132 15.5764C26.128 15.2582 25.6083 14.9838 24.9544 14.7521C24.2997 14.5209 23.5587 14.4055 22.7311 14.4055C19.9596 14.4055 18.574 15.1484 18.574 16.6306C18.574 16.959 18.6463 17.2479 18.7904 17.4973C18.935 17.7494 19.0937 17.9513 19.2666 18.1046C19.44 18.2594 19.7286 18.4127 20.1324 18.5665C20.5368 18.7214 20.873 18.8332 21.1429 18.8995C21.4123 18.9673 21.836 19.0675 22.4131 19.2031L25.4157 19.8963C26.3584 20.1083 27.2006 20.33 27.9421 20.5613C28.6827 20.7925 29.4769 21.12 30.324 21.5435C31.1707 21.9681 31.8733 22.4397 32.4319 22.9604C32.9899 23.4795 33.4564 24.1399 33.8319 24.9395C34.2075 25.74 34.3951 26.6215 34.3951 27.5845C34.3956 28.9931 34.0777 30.2596 33.4427 31.3865Z" fill="#474747"/>
</svg>
