<svg width="58" height="48" viewBox="0 0 58 48" fill="none" xmlns="http://www.w3.org/2000/svg">
<path d="M55.8703 6.25508C54.9832 6.64895 54.0712 6.98136 53.1394 7.25123C54.2426 6.00217 55.0838 4.53249 55.5972 2.92422C55.7124 2.56372 55.5931 2.16913 55.2971 1.93336C55.0014 1.69741 54.5907 1.66915 54.2652 1.86225C52.2862 3.03727 50.151 3.8817 47.9123 4.37549C45.6571 2.1695 42.5941 0.914062 39.4276 0.914062C32.7437 0.914062 27.3059 6.35756 27.3059 13.0485C27.3059 13.5754 27.3392 14.0995 27.4052 14.6163C19.1111 13.8873 11.4002 9.80622 6.1052 3.30404C5.91649 3.07228 5.62579 2.94737 5.32816 2.97126C5.03034 2.9946 4.76277 3.16272 4.61232 3.4211C3.53837 5.26587 2.97062 7.37577 2.97062 9.5225C2.97062 12.4464 4.01341 15.2205 5.85547 17.3882C5.29537 17.1941 4.75184 16.9514 4.23308 16.6631C3.95458 16.5079 3.61469 16.5103 3.33801 16.6691C3.06115 16.8279 2.88756 17.12 2.88027 17.4393C2.879 17.4931 2.879 17.5469 2.879 17.6014C2.879 21.9658 5.22542 25.8951 8.81282 28.0367C8.50463 28.0059 8.19662 27.9613 7.89061 27.9027C7.57513 27.8424 7.25072 27.953 7.03798 28.1939C6.82486 28.4346 6.75437 28.7701 6.85255 29.0765C8.18041 33.2266 11.5991 36.2792 15.7321 37.2099C12.3042 39.3592 8.38423 40.485 4.26915 40.485C3.41051 40.485 2.54694 40.4345 1.70178 40.3344C1.28193 40.2844 0.880476 40.5326 0.73749 40.9323C0.594504 41.3321 0.746051 41.778 1.10324 42.0072C6.38971 45.4004 12.5024 47.1939 18.7801 47.1939C31.1213 47.1939 38.8417 41.3681 43.1449 36.4807C48.511 30.3866 51.5885 22.3203 51.5885 14.3502C51.5885 14.0173 51.5834 13.681 51.5732 13.3459C53.6903 11.7491 55.5131 9.81662 56.9963 7.59549C57.2216 7.25816 57.1972 6.81233 56.9362 6.5018C56.6756 6.19108 56.2411 6.09061 55.8703 6.25508Z" fill="#474747"/>
</svg>
