<svg width="45" height="46" viewBox="0 0 45 46" fill="none" xmlns="http://www.w3.org/2000/svg">
<path d="M44.6198 22.3833C44.6198 34.3259 34.8736 44.0073 22.8484 44.0073C19.0323 44.0073 15.4476 43.0302 12.3271 41.3191L0.274414 45.1509L4.20328 33.5456C2.22222 30.2885 1.0813 26.464 1.0813 22.3818C1.08274 10.4393 10.8261 0.757812 22.8513 0.757812C34.875 0.760708 44.6198 10.4407 44.6198 22.3833ZM22.8469 4.20596C12.7551 4.20596 4.54599 12.3617 4.54599 22.3876C4.54599 26.3656 5.84163 30.0482 8.03236 33.0447L5.74764 39.7948L12.7782 37.5583C15.6703 39.4575 19.1306 40.5635 22.8469 40.5635C32.9388 40.5635 41.1508 32.4093 41.1508 22.3833C41.1537 12.3617 32.9402 4.20596 22.8469 4.20596ZM33.8426 27.3644C33.7066 27.1458 33.3509 27.0127 32.8188 26.7463C32.2881 26.4799 29.6606 25.1988 29.1733 25.0251C28.6817 24.8471 28.3259 24.7573 27.9702 25.2886C27.6188 25.8198 26.595 27.0127 26.2813 27.3688C25.9704 27.7234 25.6595 27.7683 25.1259 27.5063C24.5923 27.237 22.8715 26.6812 20.8326 24.876C19.2463 23.469 18.1748 21.7362 17.8654 21.2049C17.5516 20.6751 17.8336 20.3885 18.0982 20.125C18.3368 19.8862 18.6318 19.5055 18.8993 19.1943C19.1668 18.8859 19.255 18.6673 19.4329 18.3127C19.6078 17.958 19.5196 17.6497 19.388 17.3819C19.255 17.1155 18.1893 14.5099 17.7425 13.4488C17.2985 12.3892 16.8546 12.5643 16.5422 12.5643C16.2314 12.5643 15.8756 12.5209 15.5199 12.5209C15.1642 12.5209 14.5858 12.6497 14.0985 13.181C13.6111 13.7122 12.2316 14.9934 12.2316 17.6019C12.2316 20.2134 14.1418 22.7307 14.4094 23.0839C14.6783 23.4357 18.1025 28.964 23.5266 31.0862C28.9535 33.2069 28.9535 32.499 29.931 32.4093C30.9114 32.3195 33.0892 31.1281 33.5317 29.8919C33.977 28.6499 33.977 27.5859 33.8426 27.3644Z" fill="#474747"/>
</svg>
